<?xml version="1.0" encoding="UTF-8"?>
<svg version="1.1" xmlns="http://www.w3.org/2000/svg" width="200" height="200">
<path d="M0 0 C66 0 132 0 200 0 C200 66 200 132 200 200 C134 200 68 200 0 200 C0 134 0 68 0 0 Z " fill="#000000" transform="translate(0,0)"/>
<path d="M0 0 C4.1657644 1.7588783 6.17507027 3.86989588 8 8 C8.59866575 12.01961286 8.18471519 13.66878655 6.1875 17.25 C4.00736386 19.99074258 2.46430532 21.76417555 -1.0859375 22.3359375 C-5.11172399 22.40463693 -7.40531432 22.35428083 -10.9375 20.25 C-13.78206465 17.14683856 -14.82909642 15.31026074 -15.375 11.125 C-14.89861498 7.15512486 -13.46959574 5.10463464 -11 2 C-7.28612182 -0.47591878 -4.30417439 -0.53907468 0 0 Z " fill="#EBEBEB" transform="translate(133,83)"/>
<path d="M0 0 C3.58552881 1.63687185 4.79315055 2.68972583 7 6 C7.71207438 10.88516144 7.72852643 14.8100735 5.125 19.0625 C1.56762864 22.30598565 -1.07663388 22.33766248 -5.7421875 22.28515625 C-9.11376856 21.85933373 -10.74020743 20.46522826 -13 18 C-15.28853994 14.73065722 -15.47162218 11.9301848 -15 8 C-11.24374867 1.26465279 -7.71795088 -0.99489211 0 0 Z " fill="#EDEDED" transform="translate(73,83)"/>
<path d="M0 0 C30.03 0 60.06 0 91 0 C91 1.32 91 2.64 91 4 C60.97 4 30.94 4 0 4 C0 2.68 0 1.36 0 0 Z " fill="#ECECEC" transform="translate(54,60)"/>
<path d="M0 0 C3.70864386 0.92716097 5.20985284 2.6150923 7.5 5.625 C8.125 8.625 8.125 8.625 7.5 11.625 C5.4375 14.5625 5.4375 14.5625 2.5 16.625 C-1.35210127 16.69141554 -3.49848005 16.49729157 -6.4375 13.9375 C-7.8613395 10.8385552 -8.05153827 9.00317188 -7.5 5.625 C-5.20985284 2.6150923 -3.70864386 0.92716097 0 0 Z " fill="#0A0A0A" transform="translate(129.5,85.375)"/>
<path d="M0 0 C3.36046048 1.21548571 4.8814778 2.13662225 6.9375 5.0625 C7.5 8 7.5 8 6.9375 11.0625 C4.875 14 4.875 14 1.9375 16.0625 C-1.60611243 16.0625 -3.92841591 15.72100044 -7 13.9375 C-8.76187187 10.82831435 -8.54409369 8.55405423 -8.0625 5.0625 C-5.56394946 1.53513453 -4.39937831 0.08978323 0 0 Z " fill="#090909" transform="translate(70.0625,85.9375)"/>
<path d="M0 0 C5.39559715 4.64620865 8.43416494 9.75909482 9.38671875 16.8984375 C9.64704335 23.8823181 8.58253362 29.93372902 5 36 C2.25 38.625 2.25 38.625 0 40 C0.49851164 36.21131152 1.37855368 32.7438548 2.5625 29.125 C4.90435737 21.39571706 4.22845131 15.96715306 1.734375 8.34375 C0.87214614 5.59195575 0.37587353 2.85663883 0 0 Z " fill="#EBEBEB" transform="translate(156,73)"/>
<path d="M0 0 C1.39852912 4.19558737 -0.22736864 6.04566851 -2 10 C-4.13602997 18.8308353 -3.36817273 26.34269849 0.125 34.6875 C1 37 1 37 1 40 C-2.63013639 38.78995454 -2.87693578 37.96377988 -4.625 34.6875 C-5.05039062 33.90761719 -5.47578125 33.12773438 -5.9140625 32.32421875 C-9.07098635 25.56749324 -9.38341566 17.05944363 -6.98828125 10.03125 C-5.08279795 6.14017299 -3.20304343 2.94943002 0 0 Z " fill="#EAEAEA" transform="translate(42,73)"/>
<path d="M0 0 C1.65 0 3.3 0 5 0 C2.75975453 5.36228968 0.47707826 10.32392924 -3 15 C-3.33 15 -3.66 15 -4 15 C-3.63495936 9.33557626 -2.9445679 4.99296295 0 0 Z " fill="#EDEDED" transform="translate(98,96)"/>
<path d="M0 0 C1.32 0 2.64 0 4 0 C4 3.63 4 7.26 4 11 C2.68 11 1.36 11 0 11 C0 7.37 0 3.74 0 0 Z " fill="#F1F1F1" transform="translate(101,130)"/>
<path d="M0 0 C1.32 0 2.64 0 4 0 C4 3.63 4 7.26 4 11 C2.68 11 1.36 11 0 11 C0 7.37 0 3.74 0 0 Z " fill="#E7E7E7" transform="translate(94,130)"/>
<path d="M0 0 C1.32 0 2.64 0 4 0 C4 3.63 4 7.26 4 11 C2.68 11 1.36 11 0 11 C0 7.37 0 3.74 0 0 Z " fill="#E3E3E3" transform="translate(127,128)"/>
<path d="M0 0 C1.32 0 2.64 0 4 0 C4 3.63 4 7.26 4 11 C2.68 11 1.36 11 0 11 C0 7.37 0 3.74 0 0 Z " fill="#E5E5E5" transform="translate(67,128)"/>
</svg>
